<svg xmlns="http://www.w3.org/2000/svg" width="30.693" height="24.942" viewBox="0 0 30.693 24.942"><defs><style>.a{fill:#fff;}</style></defs><path class="a" d="M9.652,24.926c11.587,0,17.917-9.593,17.917-17.917,0-.273,0-.544-.018-.814a12.812,12.812,0,0,0,3.142-3.262,12.552,12.552,0,0,1-3.617.991A6.318,6.318,0,0,0,29.845.443a12.645,12.645,0,0,1-4,1.528A6.3,6.3,0,0,0,15.114,7.72,17.879,17.879,0,0,1,2.136,1.135a6.3,6.3,0,0,0,1.95,8.406,6.261,6.261,0,0,1-2.858-.788v.08A6.3,6.3,0,0,0,6.28,15.006a6.286,6.286,0,0,1-2.843.108A6.306,6.306,0,0,0,9.32,19.487a12.646,12.646,0,0,1-7.821,2.7A13.011,13.011,0,0,1,0,22.1a17.829,17.829,0,0,0,9.652,2.824" transform="translate(0 0.016)"/></svg>