<svg xmlns="http://www.w3.org/2000/svg" width="21.207" height="17.233" viewBox="0 0 21.207 17.233"><g transform="translate(0 0)"><path d="M6.669,17.217a12.293,12.293,0,0,0,12.38-12.38c0-.188,0-.376-.013-.562a8.853,8.853,0,0,0,2.171-2.254,8.673,8.673,0,0,1-2.5.685A4.365,4.365,0,0,0,20.621.3a8.737,8.737,0,0,1-2.763,1.056,4.355,4.355,0,0,0-7.415,3.972A12.354,12.354,0,0,1,1.476.779,4.354,4.354,0,0,0,2.823,6.587,4.326,4.326,0,0,1,.848,6.043V6.1a4.353,4.353,0,0,0,3.491,4.265,4.343,4.343,0,0,1-1.965.075,4.357,4.357,0,0,0,4.065,3.022,8.737,8.737,0,0,1-5.4,1.866A8.99,8.99,0,0,1,0,15.263a12.319,12.319,0,0,0,6.669,1.951" transform="translate(0 0.016)"/></g></svg>