<svg xmlns="http://www.w3.org/2000/svg" width="33.137" height="28.72" viewBox="0 0 33.137 28.72"><defs><style>.a{fill:#fff;}</style></defs><path class="a" d="M33.121,6.645Q32.9,11.492,26.364,19.92q-6.76,8.8-11.436,8.8-2.9,0-4.9-5.358Q8.69,18.452,7.353,13.538,5.867,8.179,4.162,8.179a10.244,10.244,0,0,0-2.6,1.564L0,7.725Q2.455,5.568,4.835,3.4,8.105.571,9.746.422q3.867-.373,4.762,5.3.964,6.119,1.339,7.608Q16.96,18.4,18.3,18.4q1.039,0,3.125-3.294a12.97,12.97,0,0,0,2.23-5.014q.3-2.843-2.23-2.843a6.206,6.206,0,0,0-2.452.543Q21.415-.218,28.306.008,33.416.157,33.121,6.645Z" transform="translate(0 -0.002)"/></svg>