<svg xmlns="http://www.w3.org/2000/svg" width="22.896" height="19.844" viewBox="0 0 22.896 19.844"><path d="M22.885,4.592q-.155,3.349-4.669,9.172-4.671,6.082-7.9,6.081-2,0-3.386-3.7L5.081,9.354q-1.027-3.7-2.2-3.7a7.078,7.078,0,0,0-1.8,1.081L0,5.338Q1.7,3.848,3.341,2.353,5.6.4,6.734.292q2.672-.258,3.29,3.661.666,4.228.925,5.257.769,3.507,1.7,3.505.718,0,2.159-2.276a8.962,8.962,0,0,0,1.541-3.464q.206-1.964-1.541-1.964a4.288,4.288,0,0,0-1.694.375Q14.8-.15,19.558.006,23.089.109,22.885,4.592Z" transform="translate(0 -0.002)"/></svg>