<svg xmlns="http://www.w3.org/2000/svg" width="113.686" height="57.656" viewBox="0 0 113.686 57.656"><defs><style>.a{fill:#fff;}</style></defs><g transform="translate(-0.002 -0.003)"><path class="a" d="M51.888,65.036c-1.378,1.033-2.662.645-3.882.261-4.521-1.412-9.018-2.893-13.535-4.31-1.938-.61-3.916-1.1-5.87-1.678a39.452,39.452,0,0,1-5.579-1.732c-4.964-2.3-9.865-4.748-14.74-7.232a18.531,18.531,0,0,1-5.958-5.023c-3.164-3.906-2.927-8.034-.3-12.01A15.522,15.522,0,0,1,6.422,29.1,33.186,33.186,0,0,1,20.311,23.28a31.276,31.276,0,0,1,8.079.044,24.836,24.836,0,0,0,9.938-.63c3.291-.935,6.514-2.106,9.791-3.1a11.588,11.588,0,0,1,2.622-.31c.157-.01.462.29.472.462.02.285-.049.728-.241.846A3.861,3.861,0,0,1,49.4,21.2c-2.421.231-4.5,1.4-6.657,2.357a5.409,5.409,0,0,0-2.854,2.932,68.251,68.251,0,0,0,9.766-.138c1.373-.148,2.716-.531,4.084-.748A23.746,23.746,0,0,0,60.266,23.6,8.069,8.069,0,0,1,64.5,22.561a9.264,9.264,0,0,1,1.515.522c-2.125.979-3.759,1.83-5.461,2.5A63.135,63.135,0,0,1,48.232,28.6c-3.287.581-6.608.969-9.9,1.535a5.181,5.181,0,0,0-3.38,1.83,2.53,2.53,0,0,0-.615,2.726,2.3,2.3,0,0,0,2.3,1.137c4.167-.093,8.339-.172,12.5-.344a68.007,68.007,0,0,0,7.075-.585,51.747,51.747,0,0,0,7.4-1.55,35.166,35.166,0,0,1,7.9-1.574,11.534,11.534,0,0,1,3.1.394,1.138,1.138,0,0,1,.674.871,1.2,1.2,0,0,1-.748.817c-.782.212-1.624.192-2.411.379-4.758,1.117-9.52,2.229-14.263,3.4a39.655,39.655,0,0,1-10.647,1.383q-5.284-.14-10.573-.03a41.68,41.68,0,0,0-4.861.522,4.012,4.012,0,0,0-1.363.522,1.905,1.905,0,0,0-1.043,2.662A6.045,6.045,0,0,0,33.6,46.783c2.037.556,4.118.945,6.184,1.4,3.557.777,7.173.443,10.765.512,6.706.133,13.417.33,20.123.448a65.233,65.233,0,0,0,11.946-.959c1.117-.187,2.189-.645,3.306-.861.379-.074.831.226,1.25.354-.212.315-.354.733-.645.935-1.6,1.087-3.5,1.3-5.338,1.648A100.32,100.32,0,0,1,60.453,51.8q-5.9-.118-11.8-.039c-4.271.069-8.438-.782-12.649-1.25a60.213,60.213,0,0,0-6.863-.221c-1.082,0-1.5.487-1.323,1.6a5.491,5.491,0,0,0,1.077,2.637,11.057,11.057,0,0,0,3.036,2.426A83.258,83.258,0,0,0,49.078,63.4C50.087,63.688,51.15,63.8,51.888,65.036ZM36.64,27.226c-4.32-.221-8.28-.6-12.246-.585-6.293.025-12.029,1.742-16.89,6.007-3.788,3.321-3.966,8.546-.1,11.828a39.5,39.5,0,0,0,5.333,3.872c3.08,1.84,6.273,3.5,9.441,5.181.738.394,1.555.925,2.529.261a10,10,0,0,1-.8-1.815c-.467-2.032-.713-3.911,2.475-4.541.827-.162,1.668-.231,2.617-.359-1.092-1-2.071-1.855-2.991-2.765a3.884,3.884,0,0,1-1.122-4.251,3.968,3.968,0,0,1,3.454-2.731c1.092-.162,2.17-.408,3.537-.674-.635-.763-1.063-1.235-1.437-1.742-1.392-1.884-1.2-3.665.679-5.117a11.492,11.492,0,0,1,2.6-1.264C34.579,28.175,35.617,28.2,36.64,27.226Z" transform="translate(0 -9.792)"/><path class="a" d="M189.641,70.1a2.034,2.034,0,0,1-1.948,2.052,1.6,1.6,0,0,1-1.594-1.756,1.988,1.988,0,0,1,1.446-2.209A2.06,2.06,0,0,1,189.641,70.1Z" transform="translate(-94.536 -34.631)"/><path class="a" d="M76.282,90.579a1.729,1.729,0,0,1-1.943,1.707,2.089,2.089,0,0,1-1.825-2.17A2.765,2.765,0,0,1,74.393,88.4,2.3,2.3,0,0,1,76.282,90.579Z" transform="translate(-36.827 -44.906)"/><path class="a" d="M225.364,85.35a2.235,2.235,0,0,1,1.86,1.963,2.065,2.065,0,0,1-1.875,1.934,2.034,2.034,0,0,1-1.85-1.953A2.18,2.18,0,0,1,225.364,85.35Z" transform="translate(-113.536 -43.356)"/><path class="a" d="M156.1,111.226a1.888,1.888,0,0,1,1.806-2.1,2.108,2.108,0,0,1,1.756,1.988,2.153,2.153,0,0,1-1.771,1.978A1.913,1.913,0,0,1,156.1,111.226Z" transform="translate(-79.296 -55.436)"/><path class="a" d="M195.916,29.129a2.108,2.108,0,0,1,1.825,1.953,1.808,1.808,0,0,1-1.673,2.007,2.05,2.05,0,0,1-1.879-1.894A2.176,2.176,0,0,1,195.916,29.129Z" transform="translate(-98.646 -14.796)"/><path class="a" d="M187.123,36.4a2.037,2.037,0,0,1-1.791,1.978,2.071,2.071,0,0,1-1.993-1.771A2.2,2.2,0,0,1,185.1,34.57,2.376,2.376,0,0,1,187.123,36.4Z" transform="translate(-93.135 -17.56)"/><path class="a" d="M211.753,3.888a1.959,1.959,0,0,1-1.663-2.027A1.63,1.63,0,0,1,211.576.006a2.069,2.069,0,0,1,2.047,1.7A2.331,2.331,0,0,1,211.753,3.888Z" transform="translate(-106.724 0)"/><path class="a" d="M118.382,17.256a2.089,2.089,0,0,1-2.037-1.707,2.282,2.282,0,0,1,1.87-2.189,1.936,1.936,0,0,1,1.648,1.8A1.714,1.714,0,0,1,118.382,17.256Z" transform="translate(-59.1 -6.785)"/><path class="a" d="M155.058,19.809c-.034-1.117.482-1.786,1.451-1.865a1.99,1.99,0,0,1,2.057,1.678,1.819,1.819,0,0,1-1.692,1.963A1.6,1.6,0,0,1,155.058,19.809Z" transform="translate(-78.768 -9.111)"/></g></svg>