<svg xmlns="http://www.w3.org/2000/svg" width="286.403" height="212.594" viewBox="0 0 286.403 212.594"><defs><style>.a{fill:#fff;}</style></defs><g transform="translate(-0.002 -0.033)"><path class="a" d="M150.616,201.074c-2.974,2.23-5.745,1.391-8.379.563-9.76-3.048-19.466-6.244-29.215-9.3-4.184-1.317-8.453-2.379-12.669-3.621-4.036-1.179-8.262-1.986-12.043-3.738C77.594,180,67.017,174.727,56.493,169.364a40.527,40.527,0,0,1-12.86-10.853c-6.828-8.432-6.319-17.342-.637-25.923a33.505,33.505,0,0,1,9.483-9.1c9.144-6.17,19-11.013,29.979-12.553a67.509,67.509,0,0,1,17.438.1,53.609,53.609,0,0,0,21.452-1.359c7.1-2.018,14.061-4.545,21.133-6.7a25.013,25.013,0,0,1,5.66-.669c.34-.021,1,.627,1.02,1,.042.616-.106,1.572-.52,1.827a8.335,8.335,0,0,1-3.4,1.327c-5.225.5-9.717,3.016-14.368,5.087a11.676,11.676,0,0,0-6.159,6.329,147.314,147.314,0,0,0,21.08-.3c2.963-.319,5.862-1.147,8.814-1.614a51.257,51.257,0,0,0,14.092-4.333c2.878-1.37,5.851-2.549,9.144-2.241a20,20,0,0,1,3.271,1.126c-4.588,2.113-8.113,3.951-11.788,5.405-8.559,3.377-17.6,4.906-26.6,6.5-7.094,1.253-14.262,2.092-21.367,3.313a11.184,11.184,0,0,0-7.3,3.951c-1.306,1.71-2.4,3.717-1.327,5.883.945,1.933,2.931,2.5,4.959,2.453,8.995-.2,18-.372,26.985-.743a146.8,146.8,0,0,0,15.271-1.264,111.7,111.7,0,0,0,15.972-3.345,75.9,75.9,0,0,1,17.045-3.4,24.894,24.894,0,0,1,6.7.85,2.456,2.456,0,0,1,1.455,1.88,2.586,2.586,0,0,1-1.614,1.763c-1.689.457-3.5.414-5.2.818-10.269,2.411-20.549,4.811-30.787,7.349a85.6,85.6,0,0,1-22.981,2.984q-11.406-.3-22.822-.064a89.975,89.975,0,0,0-10.492,1.126,8.659,8.659,0,0,0-2.942,1.126c-2.538,1.423-3.2,3.027-2.251,5.745a13.048,13.048,0,0,0,9.112,8.825c4.4,1.2,8.889,2.039,13.349,3.016,7.678,1.678,15.484.956,23.236,1.1,14.475.287,28.96.712,43.435.966a140.8,140.8,0,0,0,25.785-2.071c2.411-.4,4.726-1.391,7.136-1.858.818-.159,1.795.489,2.7.765-.457.68-.765,1.582-1.391,2.018-3.462,2.347-7.561,2.8-11.522,3.558a216.539,216.539,0,0,1-44.762,3.324q-12.744-.255-25.477-.085c-9.218.149-18.213-1.689-27.3-2.7a129.971,129.971,0,0,0-14.815-.478c-2.336.011-3.239,1.051-2.857,3.451a11.853,11.853,0,0,0,2.326,5.692,23.867,23.867,0,0,0,6.552,5.236c11.692,6.308,24.287,10.344,37.02,13.933C146.729,198.164,149.023,198.409,150.616,201.074Zm-32.921-81.6c-9.324-.478-17.873-1.3-26.432-1.264-13.583.053-25.965,3.759-36.458,12.967-8.177,7.168-8.56,18.446-.223,25.53a85.269,85.269,0,0,0,11.512,8.358c6.648,3.972,13.54,7.551,20.379,11.183,1.593.85,3.356,2,5.459.563a21.577,21.577,0,0,1-1.731-3.919c-1.009-4.386-1.54-8.443,5.342-9.8,1.784-.35,3.6-.5,5.65-.775-2.358-2.166-4.471-4-6.457-5.968-2.581-2.549-3.643-5.65-2.421-9.175,1.2-3.494,3.8-5.352,7.455-5.894,2.358-.35,4.683-.881,7.636-1.455-1.37-1.646-2.294-2.666-3.1-3.759-3.005-4.067-2.591-7.912,1.466-11.045a24.806,24.806,0,0,1,5.618-2.729C113.255,121.511,115.5,121.575,117.694,119.472Z" transform="translate(2.393 6.338)"/><path class="a" d="M53.842,49.637c0-9.027-.074-18.043.053-27.07a16.885,16.885,0,0,1,1.221-6.117,4.27,4.27,0,0,1,3.112-2.241,4.1,4.1,0,0,1,3.2,2.092,31.006,31.006,0,0,1,2.22,8.613c.595,7.944-.754,15.792-1.572,23.682a90.153,90.153,0,0,0-.021,20.093,70.606,70.606,0,0,1-.913,22.588,78.562,78.562,0,0,1-3.9,13.094,27.373,27.373,0,0,1-12.5,13.922c-3.5,2-6.988,4.078-10.652,5.756-9.144,4.205-22.567,1.593-29.81-8.368-3.271-4.5-5.374-9.483-3.674-15.335.68-2.358.924-4.832,1.466-7.232A3.6,3.6,0,0,1,5.883,90.1a3.266,3.266,0,0,1,3.175,3.058,64.064,64.064,0,0,1,.382,6.85A20.822,20.822,0,0,0,10.8,108.28c2.6,5.936,7.381,8.411,13.381,8.676,8.783.393,15.038-4.386,20.018-10.991,4.651-6.17,7.03-13.413,8.538-20.9A59.687,59.687,0,0,0,53.853,74.6c.159-8.315.053-16.631.053-24.946A.09.09,0,0,0,53.842,49.637Z" transform="translate(0 0.879)"/><path class="a" d="M216.145,20.706c3.993-4.025,8.538-5.5,13.551-6.128,5.724-.722,10.089,1.529,12.181,6.818,2.166,5.469,2.75,11.268,3.25,17.034.658,7.551,1.041,15.08,4.981,21.919a25.108,25.108,0,0,1,2.273,7.009,8.483,8.483,0,0,1-1.625,7.5,4.178,4.178,0,0,1-4.673,1.689c-1.827-.552-2-2.071-2.262-3.749a47.124,47.124,0,0,0-2.177-9.175,73.911,73.911,0,0,1-4.216-21.112A84.735,84.735,0,0,0,235.25,27.97c-1.869-7.444-7.168-6.138-11.225-2.952a11.079,11.079,0,0,0-3.292,4.067,32.582,32.582,0,0,0-2.793,17.5c.775,5.671,2.326,10.949,6.34,15.356a5.681,5.681,0,0,1,1.2,6.393c-1.582,3.632-4.375,4.418-6.86,1.434a30.543,30.543,0,0,1-6.627-12.5,80.064,80.064,0,0,1-1.922-9.813c-1.285-12.616-2.952-25.222-2.23-37.944a35.794,35.794,0,0,1,1.253-7.243c.467-1.72,1.954-2.315,3.759-2.23a3.212,3.212,0,0,1,3.1,2.432,7.441,7.441,0,0,1,.329,3.09c-.234,2.092-.68,4.152-1.062,6.223C214.5,15.821,214.5,15.821,216.145,20.706Z" transform="translate(12.87 0)"/><path class="a" d="M143.457,35.387c1.827-.467,2.952-.8,4.089-1.03,2.729-.584,4.322-.064,5.076,1.593a4.816,4.816,0,0,1-1.773,5.607,34.714,34.714,0,0,1-5.278,2.358c-.616.255-1.3.393-2.05.627-.34,8.453-.382,16.747,2.273,24.712,1.158,3.462,3.228,6.616,4.726,9.972,1.062,2.389,1.848,4.906,2.782,7.37.457,1.211.8,2.432-.435,3.345-1.455,1.073-3.1,2.05-4.832.828-1.391-.977-2.984-2.124-3.653-3.579-4.089-8.974-8.06-18.011-8.6-28.1-.255-4.736-.977-9.494-.807-14.209.266-7.381,1.221-14.73,1.657-22.1.191-3.26,1.912-4.991,4.779-5.374,5.055-.669,10.142-1.094,15.239-1.327,2.623-.117,3.6,1.03,3.791,3.345.2,2.623-.828,3.972-3.473,4.312-3.143.4-6.287.754-9.441,1.03-1.89.17-2.846,1.009-3.016,2.952C144.274,30.1,143.86,32.467,143.457,35.387Z" transform="translate(8.363 0.994)"/><path class="a" d="M123.4,63.6c-8.634-3.568-13.222-10.078-13.03-17.82a15.974,15.974,0,0,1,.892-4.62,3,3,0,0,1,5.331-.828,13.577,13.577,0,0,1,1.285,4.46,51.326,51.326,0,0,0,.892,5.161c1.317,4.089,3.186,5.108,8.315,4.641.35-3.027.7-6.149,1.073-9.26.3-2.485,1.6-3.866,3.526-3.759s3.08,1.529,3.271,4.025c1.115,14.167-4.131,25.445-15.324,34.111-2.081,1.614-3.8,3.706-5.894,5.31a14.9,14.9,0,0,1-5.437,2.984c-3.409.775-5.618-1.9-4.258-5.119a17.6,17.6,0,0,1,3.866-5.607c3.027-2.942,6.382-5.544,9.579-8.326C119.326,67.353,121.1,65.685,123.4,63.6Z" transform="translate(6.423 2.417)"/><path class="a" d="M198.322,77.639a11.349,11.349,0,0,1-3.441-.871c-1.487-.775-2.952-1.784-2.517-4.12a4.186,4.186,0,0,1,3.409-3.558c1.179-.308,2.485-.127,3.674-.414,2.273-.542,3.3-2.156,2.517-4.354a20.536,20.536,0,0,0-6.043-9.133c-4.322-3.632-8.634-7.275-12.754-11.119a27.923,27.923,0,0,1-4.11-5.469c-1.837-2.867-1.306-5.947.319-8.549a22.2,22.2,0,0,1,8.188-8.071,4.885,4.885,0,0,1,5.458.287c2.485,1.625,2.634,4.343.308,6.128a22.159,22.159,0,0,1-2.315,1.274c-4.535,2.676-4.864,5.459-1.083,9.218a32.006,32.006,0,0,0,2.835,2.379c3.579,2.867,7.232,5.639,10.737,8.591,6.117,5.129,8.156,14.953,4.758,22.238C206.51,75.812,203.653,77.777,198.322,77.639Z" transform="translate(11.025 1.317)"/><path class="a" d="M96.436,81.76a18.446,18.446,0,0,1-.032,3.3c-.435,1.72-.9,3.441-3.186,3.632s-3.589-.393-4.174-3.016a109.4,109.4,0,0,1-2.113-12.956c-.35-3.494-.117-7.051-.191-10.577q-.478-20.071-.977-40.153a28.444,28.444,0,0,1,.074-4.758c.372-2.676,3.133-3.759,4.991-1.869a9.448,9.448,0,0,1,2.549,4.4,59.705,59.705,0,0,1,1.1,9.908c.488,15.314.818,30.638,1.285,45.952C95.842,78.064,96.3,80.5,96.436,81.76Z" transform="translate(5.311 0.891)"/><path class="a" d="M76.683,73.779c1.582-.871,3.186-1.71,4.736-2.634a3.552,3.552,0,0,1,4.779.563,2.927,2.927,0,0,1,.361,4.227c-4.046,5.947-12.627,7.37-18.107,2.74-7.89-6.669-6.775-12.414-1.635-19.848A41.006,41.006,0,0,1,74.6,50.968c3.558-2.963,8.007-1.327,9.59,2.995,2.5,6.839-.34,11.883-5.119,16.376-.956.892-1.933,1.752-2.91,2.634C76.333,73.237,76.5,73.5,76.683,73.779Zm.552-17.9c-1.423,1.763-2.581,3.058-3.579,4.482a11.369,11.369,0,0,0-1.943,3.632c-.191.765.595,1.773.945,2.676.69-.308,1.582-.446,2.039-.966a36.723,36.723,0,0,0,3.388-4.609C78.924,59.74,79.243,58.242,77.235,55.874Z" transform="translate(3.888 3.063)"/><path class="a" d="M182.615,80.589c.552,4.057-3.579,6.191-6.669,3.738a39.778,39.778,0,0,1-7.848-8.39c-2.835-4.057-4.174-8.846-5.14-13.742-1.689-8.591-3.621-17.14-5.289-25.742A10.833,10.833,0,0,1,158,31.377a3.57,3.57,0,0,1,2.527-2.177,5.062,5.062,0,0,1,3.547,1.582,8.523,8.523,0,0,1,1.381,3.9c1.593,8.262,3.069,16.535,4.651,24.8,1.073,5.586,4.11,9.919,8.5,13.5C181.872,75.651,182.615,77.414,182.615,80.589Z" transform="translate(9.761 1.807)"/><path class="a" d="M108.7,65.035c.106,1.88-.117,3.759-2.3,4.163a3.865,3.865,0,0,1-4.343-2.315,21.209,21.209,0,0,1-2.007-5.427,153.438,153.438,0,0,1-2.166-16.715c-.361-7.052-.159-14.145-.021-21.218a28,28,0,0,1,1.073-6.744c.595-2.188,2.081-3.027,3.919-2.623s2.57,1.667,2.666,3.451c.319,5.979.828,11.958.966,17.947.212,9.165.4,18.319,2.092,27.367A19.648,19.648,0,0,1,108.7,65.035Z" transform="translate(6.053 0.869)"/><path class="a" d="M232.366,155.352a4.39,4.39,0,0,1-4.205,4.428c-2.071-.032-3.366-1.455-3.441-3.791-.085-2.474,1.306-4.6,3.122-4.768A4.461,4.461,0,0,1,232.366,155.352Z" transform="translate(13.926 9.369)"/><path class="a" d="M119.287,176.135a3.733,3.733,0,0,1-4.195,3.685,4.509,4.509,0,0,1-3.94-4.683c.223-1.412,2.708-3.685,4.057-3.706C117.131,171.419,119.4,174.032,119.287,176.135Z" transform="translate(6.886 10.622)"/><path class="a" d="M266.145,168.38a4.824,4.824,0,0,1,4.014,4.237,4.457,4.457,0,0,1-4.046,4.174,4.39,4.39,0,0,1-3.993-4.216C262.067,170.706,264.318,168.348,266.145,168.38Z" transform="translate(16.244 10.433)"/><path class="a" d="M194.72,196.684c-.085-2.549,1.646-4.566,3.9-4.524,1.827.032,3.8,2.262,3.791,4.29,0,1.975-2.028,4.237-3.823,4.269A4.121,4.121,0,0,1,194.72,196.684Z" transform="translate(12.067 11.907)"/><path class="a" d="M236.538,112.17c1.805-.074,3.791,2.05,3.94,4.216a3.9,3.9,0,0,1-3.611,4.333c-1.88.117-3.972-1.986-4.057-4.089C232.736,114.623,234.722,112.244,236.538,112.17Z" transform="translate(14.428 6.949)"/><path class="a" d="M230.127,121.54a4.4,4.4,0,0,1-3.866,4.269,4.469,4.469,0,0,1-4.3-3.823c-.074-1.922,2.06-4.386,3.8-4.386C227.61,117.611,230.127,119.883,230.127,121.54Z" transform="translate(13.755 7.286)"/><path class="a" d="M252.289,91.419c-1.816.053-3.579-2.092-3.59-4.375-.021-2.336,1.211-3.866,3.207-4a4.465,4.465,0,0,1,4.418,3.664C256.516,88.679,254.222,91.366,252.289,91.419Z" transform="translate(15.413 5.144)"/><path class="a" d="M159.357,104.8a4.51,4.51,0,0,1-4.4-3.685c-.17-2.071,2.06-4.673,4.035-4.726,1.646-.032,3.356,1.827,3.558,3.876C162.809,102.8,161.5,104.652,159.357,104.8Z" transform="translate(9.603 5.972)"/><path class="a" d="M193.68,105.006c-.074-2.411,1.041-3.855,3.133-4.025a4.3,4.3,0,0,1,4.439,3.621,3.926,3.926,0,0,1-3.653,4.237C195.1,108.924,193.765,107.618,193.68,105.006Z" transform="translate(12.003 6.255)"/><path class="a" d="M171.25,18.862a4.44,4.44,0,0,1-3.674,3.791c-1.848.011-3.8-1.869-3.7-3.568a4.357,4.357,0,0,1,3.611-3.855C169.116,15.124,171.24,17.163,171.25,18.862Z" transform="translate(10.156 0.942)"/></g></svg>